<svg version="1.1" preserveAspectRatio="none" xmlns="http://www.w3.org/2000/svg" width="500" height="500" viewBox="0 0 500 500"><rect width="100%" height="100%" fill="#141414" fill-opacity="1"/><svg viewBox="80.99 243.0462 420.8648 114.4" width="333" height="90.516479401461" x="83.5px" y="204.7418px" xmlns="http://www.w3.org/2000/svg" xmlns:xlink="http://www.w3.org/1999/xlink" preserveAspectRatio="none"><defs></defs><style>.companyName {fill:#C9EF73;fill-opacity:1;}.icon1 {fill:#C9EF73;fill-opacity:1;}.icon3-str {stroke:#F5F5F5;stroke-opacity:1;}</style><g opacity="1" transform="rotate(0 80.99 335.0462)">
<svg width="420.8648" height="22.4" x="80.99" y="335.0462" version="1.1" preserveAspectRatio="none" viewBox="4.56 -29.68 707.2 37.64">
  <g transform="matrix(1 0 0 1 0 0)" class="icon1"><path id="id-6izo4zJp36" d="M15.04-28Q20.40-28 23.44-25.44Q26.48-22.88 26.48-18.40L26.48-18.40Q26.48-13.92 23.44-11.38Q20.40-8.84 15.04-8.84L15.04-8.84L7.52-8.84L7.52 0L4.56 0L4.56-28L15.04-28ZM14.96-11.44Q19.12-11.44 21.32-13.26Q23.52-15.08 23.52-18.40L23.52-18.40Q23.52-21.80 21.32-23.62Q19.12-25.44 14.96-25.44L14.96-25.44L7.52-25.44L7.52-11.44L14.96-11.44Z M33.48 0L33.48-29.68L36.32-29.68L36.32 0L33.48 0Z M61.16-21.04L64-21.04L64 0L61.28 0L61.28-3.84Q60.16-1.92 58.20-0.86Q56.24 0.20 53.72 0.20L53.72 0.20Q49.60 0.20 47.22-2.10Q44.84-4.40 44.84-8.84L44.84-8.84L44.84-21.04L47.68-21.04L47.68-9.12Q47.68-5.80 49.32-4.08Q50.96-2.36 54-2.36L54-2.36Q57.32-2.36 59.24-4.38Q61.16-6.40 61.16-10L61.16-10L61.16-21.04Z M89.52-21.04L92.24-21.04L92.24-2.56Q92.24 2.80 89.62 5.38Q87 7.96 81.72 7.96L81.72 7.96Q78.80 7.96 76.18 7.10Q73.56 6.24 71.92 4.72L71.92 4.72L73.36 2.56Q74.88 3.92 77.06 4.68Q79.24 5.44 81.64 5.44L81.64 5.44Q85.64 5.44 87.52 3.58Q89.40 1.72 89.40-2.20L89.40-2.20L89.40-4.88Q88.08-2.88 85.94-1.84Q83.80-0.80 81.20-0.80L81.20-0.80Q78.24-0.80 75.82-2.10Q73.40-3.40 72.02-5.74Q70.64-8.08 70.64-11.04L70.64-11.04Q70.64-14 72.02-16.32Q73.40-18.64 75.80-19.92Q78.20-21.20 81.20-21.20L81.20-21.20Q83.88-21.20 86.04-20.12Q88.20-19.04 89.52-17L89.52-17L89.52-21.04ZM81.48-3.32Q83.76-3.32 85.60-4.30Q87.44-5.28 88.46-7.04Q89.48-8.80 89.48-11.04L89.48-11.04Q89.48-13.28 88.46-15.02Q87.44-16.76 85.62-17.74Q83.80-18.72 81.48-18.72L81.48-18.72Q79.20-18.72 77.38-17.76Q75.56-16.80 74.54-15.04Q73.52-13.28 73.52-11.04L73.52-11.04Q73.52-8.80 74.54-7.04Q75.56-5.28 77.38-4.30Q79.20-3.32 81.48-3.32L81.48-3.32Z M112.28 0L112.28-21.04L115.12-21.04L115.12 0L112.28 0ZM113.72-25.64Q112.84-25.64 112.24-26.24Q111.64-26.84 111.64-27.68L111.64-27.68Q111.64-28.48 112.24-29.08Q112.84-29.68 113.72-29.68L113.72-29.68Q114.60-29.68 115.20-29.10Q115.80-28.52 115.80-27.72L115.80-27.72Q115.80-26.84 115.20-26.24Q114.60-25.64 113.72-25.64L113.72-25.64Z M134.56-21.20Q138.52-21.20 140.86-18.90Q143.20-16.60 143.20-12.20L143.20-12.20L143.20 0L140.36 0L140.36-11.92Q140.36-15.20 138.72-16.92Q137.08-18.64 134.04-18.64L134.04-18.64Q130.64-18.64 128.66-16.62Q126.68-14.60 126.68-11.04L126.68-11.04L126.68 0L123.84 0L123.84-21.04L126.56-21.04L126.56-17.16Q127.72-19.08 129.78-20.14Q131.84-21.20 134.56-21.20L134.56-21.20Z M161.80-3.32L162.80-1.28Q162.00-0.56 160.82-0.18Q159.64 0.20 158.36 0.20L158.36 0.20Q155.40 0.20 153.80-1.40Q152.20-3 152.20-5.92L152.20-5.92L152.20-18.64L148.44-18.64L148.44-21.04L152.20-21.04L152.20-25.64L155.04-25.64L155.04-21.04L161.44-21.04L161.44-18.64L155.04-18.64L155.04-6.08Q155.04-4.20 155.98-3.22Q156.92-2.24 158.68-2.24L158.68-2.24Q159.56-2.24 160.38-2.52Q161.20-2.80 161.80-3.32L161.80-3.32Z M176.60 0.20Q173.56 0.20 171.12-1.18Q168.68-2.56 167.28-5Q165.88-7.44 165.88-10.52L165.88-10.52Q165.88-13.60 167.28-16.04Q168.68-18.48 171.12-19.84Q173.56-21.20 176.60-21.20L176.60-21.20Q179.64-21.20 182.08-19.84Q184.52-18.48 185.90-16.04Q187.28-13.60 187.28-10.52L187.28-10.52Q187.28-7.44 185.90-5Q184.52-2.56 182.08-1.18Q179.64 0.20 176.60 0.20L176.60 0.20ZM176.60-2.32Q178.84-2.32 180.62-3.34Q182.40-4.36 183.40-6.24Q184.40-8.12 184.40-10.52L184.40-10.52Q184.40-12.92 183.40-14.80Q182.40-16.68 180.62-17.70Q178.84-18.72 176.60-18.72L176.60-18.72Q174.36-18.72 172.58-17.70Q170.80-16.68 169.78-14.80Q168.76-12.92 168.76-10.52L168.76-10.52Q168.76-8.12 169.78-6.24Q170.80-4.36 172.58-3.34Q174.36-2.32 176.60-2.32L176.60-2.32Z M221.64-21.04L224.36-21.04L224.36 7.76L221.52 7.76L221.52-3.96Q220.20-1.92 218.14-0.86Q216.08 0.20 213.52 0.20L213.52 0.20Q210.52 0.20 208.14-1.14Q205.76-2.48 204.40-4.92Q203.04-7.36 203.04-10.52L203.04-10.52Q203.04-13.64 204.40-16.08Q205.76-18.52 208.16-19.86Q210.56-21.20 213.52-21.20L213.52-21.20Q216.16-21.20 218.26-20.08Q220.36-18.96 221.64-16.88L221.64-16.88L221.64-21.04ZM213.76-2.32Q215.96-2.32 217.74-3.34Q219.52-4.36 220.54-6.24Q221.56-8.12 221.56-10.52L221.56-10.52Q221.56-12.92 220.54-14.78Q219.52-16.64 217.74-17.68Q215.96-18.72 213.76-18.72L213.76-18.72Q211.52-18.72 209.74-17.68Q207.96-16.64 206.94-14.78Q205.92-12.92 205.92-10.52L205.92-10.52Q205.92-8.12 206.94-6.24Q207.96-4.36 209.74-3.34Q211.52-2.32 213.76-2.32L213.76-2.32Z M249.20-21.04L252.04-21.04L252.04 0L249.32 0L249.32-3.84Q248.20-1.92 246.24-0.86Q244.28 0.20 241.76 0.20L241.76 0.20Q237.64 0.20 235.26-2.10Q232.88-4.40 232.88-8.84L232.88-8.84L232.88-21.04L235.72-21.04L235.72-9.12Q235.72-5.80 237.36-4.08Q239.00-2.36 242.04-2.36L242.04-2.36Q245.36-2.36 247.28-4.38Q249.20-6.40 249.20-10L249.20-10L249.20-21.04Z M268.16-21.20Q272.28-21.20 274.48-19.14Q276.68-17.08 276.68-13.04L276.68-13.04L276.68 0L273.96 0L273.96-3.28Q273.00-1.64 271.14-0.72Q269.28 0.20 266.72 0.20L266.72 0.20Q263.20 0.20 261.12-1.48Q259.04-3.16 259.04-5.92L259.04-5.92Q259.04-8.60 260.98-10.24Q262.92-11.88 267.16-11.88L267.16-11.88L273.84-11.88L273.84-13.16Q273.84-15.88 272.32-17.30Q270.80-18.72 267.88-18.72L267.88-18.72Q265.88-18.72 264.04-18.06Q262.20-17.40 260.88-16.24L260.88-16.24L259.60-18.36Q261.20-19.72 263.44-20.46Q265.68-21.20 268.16-21.20L268.16-21.20ZM267.16-2.04Q269.56-2.04 271.28-3.14Q273.00-4.24 273.84-6.32L273.84-6.32L273.84-9.76L267.24-9.76Q261.84-9.76 261.84-6L261.84-6Q261.84-4.16 263.24-3.10Q264.64-2.04 267.16-2.04L267.16-2.04Z M285.20 0L285.20-29.68L288.04-29.68L288.04 0L285.20 0Z M296.76 0L296.76-21.04L299.60-21.04L299.60 0L296.76 0ZM298.20-25.64Q297.32-25.64 296.72-26.24Q296.12-26.84 296.12-27.68L296.12-27.68Q296.12-28.48 296.72-29.08Q297.32-29.68 298.20-29.68L298.20-29.68Q299.08-29.68 299.68-29.10Q300.28-28.52 300.28-27.72L300.28-27.72Q300.28-26.84 299.68-26.24Q299.08-25.64 298.20-25.64L298.20-25.64Z M318.40-3.32L319.40-1.28Q318.60-0.56 317.42-0.18Q316.24 0.20 314.96 0.20L314.96 0.20Q312.00 0.20 310.40-1.40Q308.80-3 308.80-5.92L308.80-5.92L308.80-18.64L305.04-18.64L305.04-21.04L308.80-21.04L308.80-25.64L311.64-25.64L311.64-21.04L318.04-21.04L318.04-18.64L311.64-18.64L311.64-6.08Q311.64-4.20 312.58-3.22Q313.52-2.24 315.28-2.24L315.28-2.24Q316.16-2.24 316.98-2.52Q317.80-2.80 318.40-3.32L318.40-3.32Z M339.84-21.04L342.64-21.04L332.12 2.52Q330.84 5.48 329.16 6.72Q327.48 7.96 325.12 7.96L325.12 7.96Q323.60 7.96 322.28 7.48Q320.96 7 320.00 6.04L320.00 6.04L321.32 3.92Q322.92 5.52 325.16 5.52L325.16 5.52Q326.60 5.52 327.62 4.72Q328.64 3.92 329.52 2L329.52 2L330.44-0.04L321.04-21.04L324.00-21.04L331.92-3.16L339.84-21.04Z M346.40-4.16Q347.32-4.16 347.92-3.54Q348.52-2.92 348.52-2L348.52-2Q348.52-1.52 348.38-0.96Q348.24-0.40 347.96 0.32L347.96 0.32L346.28 5.84L344.36 5.84L345.72 0.04Q345.08-0.16 344.68-0.70Q344.28-1.24 344.28-2L344.28-2Q344.28-2.92 344.88-3.54Q345.48-4.16 346.40-4.16L346.40-4.16Z M381.52-21.04L384.32-21.04L374.96 0L372.04 0L362.72-21.04L365.68-21.04L373.56-3.12L381.52-21.04Z M395.84-21.20Q399.96-21.20 402.16-19.14Q404.36-17.08 404.36-13.04L404.36-13.04L404.36 0L401.64 0L401.64-3.28Q400.68-1.64 398.82-0.72Q396.96 0.20 394.40 0.20L394.40 0.20Q390.88 0.20 388.80-1.48Q386.72-3.16 386.72-5.92L386.72-5.92Q386.72-8.60 388.66-10.24Q390.60-11.88 394.84-11.88L394.84-11.88L401.52-11.88L401.52-13.16Q401.52-15.88 400.00-17.30Q398.48-18.72 395.56-18.72L395.56-18.72Q393.56-18.72 391.72-18.06Q389.88-17.40 388.56-16.24L388.56-16.24L387.28-18.36Q388.88-19.72 391.12-20.46Q393.36-21.20 395.84-21.20L395.84-21.20ZM394.84-2.04Q397.24-2.04 398.96-3.14Q400.68-4.24 401.52-6.32L401.52-6.32L401.52-9.76L394.92-9.76Q389.52-9.76 389.52-6L389.52-6Q389.52-4.16 390.92-3.10Q392.32-2.04 394.84-2.04L394.84-2.04Z M415.60-16.92Q416.60-19.04 418.58-20.12Q420.56-21.20 423.48-21.20L423.48-21.20L423.48-18.44L422.80-18.48Q419.48-18.48 417.60-16.44Q415.72-14.40 415.72-10.72L415.72-10.72L415.72 0L412.88 0L412.88-21.04L415.60-21.04L415.60-16.92Z M429.40 0L429.40-21.04L432.24-21.04L432.24 0L429.40 0ZM430.84-25.64Q429.96-25.64 429.36-26.24Q428.76-26.84 428.76-27.68L428.76-27.68Q428.76-28.48 429.36-29.08Q429.96-29.68 430.84-29.68L430.84-29.68Q431.72-29.68 432.32-29.10Q432.92-28.52 432.92-27.72L432.92-27.72Q432.92-26.84 432.32-26.24Q431.72-25.64 430.84-25.64L430.84-25.64Z M459.32-10.52L459.28-9.64L441.68-9.64Q441.92-6.36 444.20-4.34Q446.48-2.32 449.96-2.32L449.96-2.32Q451.92-2.32 453.56-3.02Q455.20-3.72 456.40-5.08L456.40-5.08L458.00-3.24Q456.60-1.56 454.50-0.68Q452.40 0.20 449.88 0.20L449.88 0.20Q446.64 0.20 444.14-1.18Q441.64-2.56 440.24-5Q438.84-7.44 438.84-10.52L438.84-10.52Q438.84-13.60 440.18-16.04Q441.52-18.48 443.86-19.84Q446.20-21.20 449.12-21.20L449.12-21.20Q452.04-21.20 454.36-19.84Q456.68-18.48 458.00-16.06Q459.32-13.64 459.32-10.52L459.32-10.52ZM449.12-18.76Q446.08-18.76 444.02-16.82Q441.96-14.88 441.68-11.76L441.68-11.76L456.60-11.76Q456.32-14.88 454.26-16.82Q452.20-18.76 449.12-18.76L449.12-18.76Z M476.00-3.32L477.00-1.28Q476.20-0.56 475.02-0.18Q473.84 0.20 472.56 0.20L472.56 0.20Q469.60 0.20 468.00-1.40Q466.40-3 466.40-5.92L466.40-5.92L466.40-18.64L462.64-18.64L462.64-21.04L466.40-21.04L466.40-25.64L469.24-25.64L469.24-21.04L475.64-21.04L475.64-18.64L469.24-18.64L469.24-6.08Q469.24-4.20 470.18-3.22Q471.12-2.24 472.88-2.24L472.88-2.24Q473.76-2.24 474.58-2.52Q475.40-2.80 476.00-3.32L476.00-3.32Z M497.44-21.04L500.24-21.04L489.72 2.52Q488.44 5.48 486.76 6.72Q485.08 7.96 482.72 7.96L482.72 7.96Q481.20 7.96 479.88 7.48Q478.56 7 477.60 6.04L477.60 6.04L478.92 3.92Q480.52 5.52 482.76 5.52L482.76 5.52Q484.20 5.52 485.22 4.72Q486.24 3.92 487.12 2L487.12 2L488.04-0.04L478.64-21.04L481.60-21.04L489.52-3.16L497.44-21.04Z M523.68-21.20Q527.80-21.20 530.00-19.14Q532.20-17.08 532.20-13.04L532.20-13.04L532.20 0L529.48 0L529.48-3.28Q528.52-1.64 526.66-0.72Q524.80 0.20 522.24 0.20L522.24 0.20Q518.72 0.20 516.64-1.48Q514.56-3.16 514.56-5.92L514.56-5.92Q514.56-8.60 516.50-10.24Q518.44-11.88 522.68-11.88L522.68-11.88L529.36-11.88L529.36-13.16Q529.36-15.88 527.84-17.30Q526.32-18.72 523.40-18.72L523.40-18.72Q521.40-18.72 519.56-18.06Q517.72-17.40 516.40-16.24L516.40-16.24L515.12-18.36Q516.72-19.72 518.96-20.46Q521.20-21.20 523.68-21.20L523.68-21.20ZM522.68-2.04Q525.08-2.04 526.80-3.14Q528.52-4.24 529.36-6.32L529.36-6.32L529.36-9.76L522.76-9.76Q517.36-9.76 517.36-6L517.36-6Q517.36-4.16 518.76-3.10Q520.16-2.04 522.68-2.04L522.68-2.04Z M551.44-21.20Q555.40-21.20 557.74-18.90Q560.08-16.60 560.08-12.20L560.08-12.20L560.08 0L557.24 0L557.24-11.92Q557.24-15.20 555.60-16.92Q553.96-18.64 550.92-18.64L550.92-18.64Q547.52-18.64 545.54-16.62Q543.56-14.60 543.56-11.04L543.56-11.04L543.56 0L540.72 0L540.72-21.04L543.44-21.04L543.44-17.16Q544.60-19.08 546.66-20.14Q548.72-21.20 551.44-21.20L551.44-21.20Z M585.04-29.68L587.88-29.68L587.88 0L585.16 0L585.16-4.16Q583.88-2.04 581.78-0.92Q579.68 0.20 577.04 0.20L577.04 0.20Q574.08 0.20 571.68-1.16Q569.28-2.52 567.92-4.96Q566.56-7.40 566.56-10.52L566.56-10.52Q566.56-13.64 567.92-16.08Q569.28-18.52 571.68-19.86Q574.08-21.20 577.04-21.20L577.04-21.20Q579.60-21.20 581.66-20.14Q583.72-19.08 585.04-17.04L585.04-17.04L585.04-29.68ZM577.28-2.32Q579.48-2.32 581.26-3.34Q583.04-4.36 584.06-6.24Q585.08-8.12 585.08-10.52L585.08-10.52Q585.08-12.92 584.06-14.80Q583.04-16.68 581.26-17.70Q579.48-18.72 577.28-18.72L577.28-18.72Q575.04-18.72 573.26-17.70Q571.48-16.68 570.46-14.80Q569.44-12.92 569.44-10.52L569.44-10.52Q569.44-8.12 570.46-6.24Q571.48-4.36 573.26-3.34Q575.04-2.32 577.28-2.32L577.28-2.32Z M622.76-21.04L625.56-21.04L616.20 0L613.28 0L603.96-21.04L606.92-21.04L614.80-3.12L622.76-21.04Z M637.08-21.20Q641.20-21.20 643.40-19.14Q645.60-17.08 645.60-13.04L645.60-13.04L645.60 0L642.88 0L642.88-3.28Q641.92-1.64 640.06-0.72Q638.20 0.20 635.64 0.20L635.64 0.20Q632.12 0.20 630.04-1.48Q627.96-3.16 627.96-5.92L627.96-5.92Q627.96-8.60 629.90-10.24Q631.84-11.88 636.08-11.88L636.08-11.88L642.76-11.88L642.76-13.16Q642.76-15.88 641.24-17.30Q639.72-18.72 636.80-18.72L636.80-18.72Q634.80-18.72 632.96-18.06Q631.12-17.40 629.80-16.24L629.80-16.24L628.52-18.36Q630.12-19.72 632.36-20.46Q634.60-21.20 637.08-21.20L637.08-21.20ZM636.08-2.04Q638.48-2.04 640.20-3.14Q641.92-4.24 642.76-6.32L642.76-6.32L642.76-9.76L636.16-9.76Q630.76-9.76 630.76-6L630.76-6Q630.76-4.16 632.16-3.10Q633.56-2.04 636.08-2.04L636.08-2.04Z M654.12 0L654.12-29.68L656.96-29.68L656.96 0L654.12 0Z M681.80-21.04L684.64-21.04L684.64 0L681.92 0L681.92-3.84Q680.80-1.92 678.84-0.86Q676.88 0.20 674.36 0.20L674.36 0.20Q670.24 0.20 667.86-2.10Q665.48-4.40 665.48-8.84L665.48-8.84L665.48-21.04L668.32-21.04L668.32-9.12Q668.32-5.80 669.96-4.08Q671.60-2.36 674.64-2.36L674.64-2.36Q677.96-2.36 679.88-4.38Q681.80-6.40 681.80-10L681.80-10L681.80-21.04Z M711.76-10.52L711.72-9.64L694.12-9.64Q694.36-6.36 696.64-4.34Q698.92-2.32 702.40-2.32L702.40-2.32Q704.36-2.32 706.00-3.02Q707.64-3.72 708.84-5.08L708.84-5.08L710.44-3.24Q709.04-1.56 706.94-0.68Q704.84 0.20 702.32 0.20L702.32 0.20Q699.08 0.20 696.58-1.18Q694.08-2.56 692.68-5Q691.28-7.44 691.28-10.52L691.28-10.52Q691.28-13.60 692.62-16.04Q693.96-18.48 696.30-19.84Q698.64-21.20 701.56-21.20L701.56-21.20Q704.48-21.20 706.80-19.84Q709.12-18.48 710.44-16.06Q711.76-13.64 711.76-10.52L711.76-10.52ZM701.56-18.76Q698.52-18.76 696.46-16.82Q694.40-14.88 694.12-11.76L694.12-11.76L709.04-11.76Q708.76-14.88 706.70-16.82Q704.64-18.76 701.56-18.76L701.56-18.76Z"/></g>
</svg>
</g><g opacity="1" transform="rotate(0 115.2864 243.0462)">
<svg width="352.272" height="70" x="115.2864" y="243.0462" version="1.1" preserveAspectRatio="none" viewBox="1.48 -31 192.44 38.24">
  <g transform="matrix(1 0 0 1 0 0)" class="companyName"><path id="id-D6z1nYkh8" d="M12.72-2.72Q16-2.72 18-5.92L18-5.92L18.72-5.68Q17.92-3.08 15.86-1.26Q13.80 0.56 10.72 0.56L10.72 0.56Q6.48 0.56 3.98-2.14Q1.48-4.84 1.48-10.12L1.48-10.12Q1.48-15.52 4.16-18.38Q6.84-21.24 11.28-21.24L11.28-21.24Q18.80-21.24 18.80-12.36L18.80-12.36L7.56-12.36Q7.52-11.76 7.52-10.48L7.52-10.48Q7.52-7.84 8.26-6.08Q9-4.32 10.18-3.52Q11.36-2.72 12.72-2.72L12.72-2.72ZM11.04-20.40Q9.60-20.40 8.66-18.62Q7.72-16.84 7.48-13.12L7.48-13.12L13.76-13.12Q13.84-16.28 13.14-18.34Q12.44-20.40 11.04-20.40L11.04-20.40Z M53.04-3.72Q53.04-2.08 53.62-1.46Q54.20-0.84 55.60-0.84L55.60-0.84L55.60 0Q51.60-0.16 50.32-0.16L50.32-0.16Q49.20-0.16 45.36 0L45.36 0L45.36-0.84Q46.44-0.84 46.86-1.44Q47.28-2.04 47.28-3.72L47.28-3.72L47.28-16.16Q47.28-17.84 46.78-18.66Q46.28-19.48 44.88-19.48L44.88-19.48Q43.40-19.48 42.30-18.24Q41.20-17 41-15.20L41-15.20L41-14.48L41-3.72Q41-2.08 41.50-1.46Q42-0.84 43.32-0.84L43.32-0.84L43.32 0Q39.48-0.16 38.28-0.16L38.28-0.16Q37.16-0.16 33.32 0L33.32 0L33.32-0.84Q34.40-0.84 34.82-1.46Q35.24-2.08 35.24-3.72L35.24-3.72L35.24-16.16Q35.24-17.84 34.80-18.66Q34.36-19.48 33.08-19.48L33.08-19.48Q31.48-19.48 30.34-18.14Q29.20-16.80 29.20-14.84L29.20-14.84L29.20-3.72Q29.20-2.08 29.62-1.46Q30.04-0.84 31.12-0.84L31.12-0.84L31.12 0Q27.60-0.16 26.40-0.16L26.40-0.16Q25.20-0.16 20.88 0L20.88 0L20.88-0.84Q22.32-0.84 22.88-1.46Q23.44-2.08 23.44-3.72L23.44-3.72L23.44-16.32Q23.44-18.16 22.88-19Q22.32-19.84 20.88-19.84L20.88-19.84L20.88-20.68Q22.16-20.56 23.36-20.56L23.36-20.56Q26.92-20.56 29.20-21.12L29.20-21.12L29.20-17.52Q30.96-21.24 35.40-21.24L35.40-21.24Q38.44-21.24 39.80-19.68L39.80-19.68Q40.56-18.88 40.80-17.28L40.80-17.28Q41.84-19.44 43.52-20.34Q45.20-21.24 47.44-21.24L47.44-21.24Q50.48-21.24 51.84-19.68L51.84-19.68Q52.48-18.96 52.76-17.72Q53.04-16.48 53.04-14.48L53.04-14.48L53.04-3.72Z M71.44-21.24Q73.52-21.24 75.14-20.12Q76.76-19 77.68-16.76Q78.60-14.52 78.60-11.28L78.60-11.28Q78.60-5.56 76.10-2.50Q73.60 0.56 69.32 0.56L69.32 0.56Q68.12 0.56 67.06 0.24Q66-0.08 65.24-0.72L65.24-0.72L65.24 3.28Q65.24 5.04 66.12 5.72Q67 6.40 68.84 6.40L68.84 6.40L68.84 7.24L67.76 7.20Q63.32 7.08 62.12 7.08L62.12 7.08Q60.92 7.08 57.08 7.24L57.08 7.24L57.08 6.40Q58.40 6.40 58.94 5.82Q59.48 5.24 59.48 3.68L59.48 3.68L59.48-16.32Q59.48-18.16 58.90-19Q58.32-19.84 56.92-19.84L56.92-19.84L56.92-20.68Q58.20-20.56 59.40-20.56L59.40-20.56Q62.88-20.56 65.24-21.12L65.24-21.12L65.24-17.44Q66.08-19.28 67.68-20.26Q69.28-21.24 71.44-21.24L71.44-21.24ZM67.76-0.52Q70.32-0.52 71.44-3.06Q72.56-5.60 72.56-10.48L72.56-10.48Q72.56-15.36 71.66-17.44Q70.76-19.52 69.08-19.52L69.08-19.52Q67.72-19.52 66.66-18.60Q65.60-17.68 65.24-16.04L65.24-16.04L65.24-1.60Q66.20-0.52 67.76-0.52L67.76-0.52Z M91.40-21.24Q96-21.24 98.60-18.62Q101.20-16 101.20-10.32L101.20-10.32Q101.20-4.64 98.60-2.04Q96 0.56 91.40 0.56L91.40 0.56Q86.84 0.56 84.22-2.04Q81.60-4.64 81.60-10.32L81.60-10.32Q81.60-16 84.22-18.62Q86.84-21.24 91.40-21.24L91.40-21.24ZM91.40-20.44Q89.68-20.44 88.66-17.94Q87.64-15.44 87.64-10.32L87.64-10.32Q87.64-5.20 88.66-2.72Q89.68-0.24 91.40-0.24L91.40-0.24Q93.16-0.24 94.16-2.70Q95.16-5.16 95.16-10.32L95.16-10.32Q95.16-15.48 94.14-17.96Q93.12-20.44 91.40-20.44L91.40-20.44Z M117.44-21.24Q119.24-21.24 120.16-20.16Q121.08-19.08 121.08-17.56L121.08-17.56Q121.08-16.08 120.22-15.14Q119.36-14.20 117.96-14.20L117.96-14.20Q116.60-14.20 115.80-14.90Q115-15.60 115-16.76L115-16.76Q115-18.68 116.76-19.88L116.76-19.88Q116.60-19.92 116.28-19.92L116.28-19.92Q115.88-19.92 115.64-19.84L115.64-19.84Q114.12-19.60 113.06-18Q112-16.40 112-14.72L112-14.72L112-4.12Q112-2.28 112.90-1.56Q113.80-0.84 115.76-0.84L115.76-0.84L115.76 0Q115.20 0 114.84-0.04L114.84-0.04Q110.76-0.16 109.40-0.16L109.40-0.16Q108.32-0.16 104.48-0.04L104.48-0.04Q104.16 0 103.68 0L103.68 0L103.68-0.84Q105.12-0.84 105.68-1.46Q106.24-2.08 106.24-3.72L106.24-3.72L106.24-16.32Q106.24-18.16 105.68-19Q105.12-19.84 103.68-19.84L103.68-19.84L103.68-20.68Q104.96-20.56 106.16-20.56L106.16-20.56Q109.72-20.56 112-21.12L112-21.12L112-17.40Q112.76-19.12 114.20-20.18Q115.64-21.24 117.44-21.24L117.44-21.24Z M127.56-31Q129.24-31 130.22-30.18Q131.20-29.36 131.20-27.92L131.20-27.92Q131.20-26.48 130.22-25.66Q129.24-24.84 127.56-24.84L127.56-24.84Q125.88-24.84 124.90-25.66Q123.92-26.48 123.92-27.92L123.92-27.92Q123.92-29.36 124.90-30.18Q125.88-31 127.56-31L127.56-31ZM130.68-21.12L130.68-3.72Q130.68-2.08 131.26-1.46Q131.84-0.84 133.24-0.84L133.24-0.84L133.24 0Q129.24-0.16 127.92-0.16L127.92-0.16Q126.68-0.16 122.36 0L122.36 0L122.36-0.84Q123.80-0.84 124.36-1.46Q124.92-2.08 124.92-3.72L124.92-3.72L124.92-16.32Q124.92-18.16 124.36-19Q123.80-19.84 122.36-19.84L122.36-19.84L122.36-20.68Q123.64-20.56 124.84-20.56L124.84-20.56Q128.40-20.56 130.68-21.12L130.68-21.12Z M154.88-21.12L154.88-4.36Q154.88-2.52 155.46-1.68Q156.04-0.84 157.44-0.84L157.44-0.84L157.44 0Q156.20-0.12 154.96-0.12L154.96-0.12Q151.48-0.12 149.12 0.44L149.12 0.44L149.12-3.16Q147.28 0.56 142.68 0.56L142.68 0.56Q139.68 0.56 138.32-1L138.32-1Q137.68-1.76 137.38-2.98Q137.08-4.20 137.08-6.20L137.08-6.20L137.08-16.32Q137.08-18.16 136.50-19Q135.92-19.84 134.52-19.84L134.52-19.84L134.52-20.68Q135.76-20.56 137-20.56L137-20.56Q140.48-20.56 142.84-21.12L142.84-21.12L142.84-4.56Q142.84-2.88 143.34-2.04Q143.84-1.20 145.24-1.20L145.24-1.20Q146.84-1.20 147.98-2.54Q149.12-3.88 149.12-5.84L149.12-5.84L149.12-16.32Q149.12-18.16 148.54-19Q147.96-19.84 146.56-19.84L146.56-19.84L146.56-20.68Q147.84-20.56 149.04-20.56L149.04-20.56Q152.52-20.56 154.88-21.12L154.88-21.12Z M191.36-3.72Q191.36-2.08 191.94-1.46Q192.52-0.84 193.92-0.84L193.92-0.84L193.92 0Q189.92-0.16 188.64-0.16L188.64-0.16Q187.52-0.16 183.68 0L183.68 0L183.68-0.84Q184.76-0.84 185.18-1.44Q185.60-2.04 185.60-3.72L185.60-3.72L185.60-16.16Q185.60-17.84 185.10-18.66Q184.60-19.48 183.20-19.48L183.20-19.48Q181.72-19.48 180.62-18.24Q179.52-17 179.32-15.20L179.32-15.20L179.32-14.48L179.32-3.72Q179.32-2.08 179.82-1.46Q180.32-0.84 181.64-0.84L181.64-0.84L181.64 0Q177.80-0.16 176.60-0.16L176.60-0.16Q175.48-0.16 171.64 0L171.64 0L171.64-0.84Q172.72-0.84 173.14-1.46Q173.56-2.08 173.56-3.72L173.56-3.72L173.56-16.16Q173.56-17.84 173.12-18.66Q172.68-19.48 171.40-19.48L171.40-19.48Q169.80-19.48 168.66-18.14Q167.52-16.80 167.52-14.84L167.52-14.84L167.52-3.72Q167.52-2.08 167.94-1.46Q168.36-0.84 169.44-0.84L169.44-0.84L169.44 0Q165.92-0.16 164.72-0.16L164.72-0.16Q163.52-0.16 159.20 0L159.20 0L159.20-0.84Q160.64-0.84 161.20-1.46Q161.76-2.08 161.76-3.72L161.76-3.72L161.76-16.32Q161.76-18.16 161.20-19Q160.64-19.84 159.20-19.84L159.20-19.84L159.20-20.68Q160.48-20.56 161.68-20.56L161.68-20.56Q165.24-20.56 167.52-21.12L167.52-21.12L167.52-17.52Q169.28-21.24 173.72-21.24L173.72-21.24Q176.76-21.24 178.12-19.68L178.12-19.68Q178.88-18.88 179.12-17.28L179.12-17.28Q180.16-19.44 181.84-20.34Q183.52-21.24 185.76-21.24L185.76-21.24Q188.80-21.24 190.16-19.68L190.16-19.68Q190.80-18.96 191.08-17.72Q191.36-16.48 191.36-14.48L191.36-14.48L191.36-3.72Z"/></g>
</svg>
</g></svg></svg>